<?xml version="1.0" standalone="no"?>
<!DOCTYPE svg PUBLIC "-//W3C//DTD SVG 20010904//EN"
 "http://www.w3.org/TR/2001/REC-SVG-20010904/DTD/svg10.dtd">
<svg version="1.0" xmlns="http://www.w3.org/2000/svg"
 width="605.000000pt" height="412.000000pt" viewBox="0 0 605.000000 412.000000"
 preserveAspectRatio="xMidYMid meet">

<g transform="translate(0.000000,412.000000) scale(0.100000,-0.100000)"
fill="#000000" stroke="none">
<path d="M2989 3908 c-17 -35 -49 -96 -71 -136 -41 -77 -41 -88 2 -127 41 -37
52 -70 39 -117 -29 -111 -91 -192 -182 -240 -55 -29 -175 -32 -224 -5 -46 25
-102 75 -119 108 -13 26 -12 32 8 74 17 35 20 50 12 63 -16 24 -188 142 -196
134 -4 -4 18 -90 48 -192 30 -102 66 -230 80 -285 14 -55 29 -104 34 -108 4
-5 50 7 101 26 188 70 412 103 639 93 223 -9 452 -24 487 -31 l31 -7 21 68
c11 38 32 114 46 169 23 85 46 165 71 248 3 9 0 17 -6 17 -10 0 -162 -103
-194 -131 -6 -5 0 -29 14 -59 27 -58 23 -72 -38 -135 -56 -57 -87 -70 -172
-69 -79 0 -126 17 -197 71 -43 33 -89 110 -110 183 -16 58 -16 62 3 85 10 13
32 39 47 59 l29 35 -74 132 c-41 73 -80 135 -86 137 -6 2 -25 -25 -43 -60z"/>
<path d="M1938 3265 c-65 -51 -82 -73 -107 -142 -30 -79 -33 -93 -21 -93 26 0
127 91 158 143 32 54 54 137 36 137 -5 0 -35 -20 -66 -45z"/>
<path d="M4066 3273 c10 -38 51 -124 72 -148 31 -36 123 -108 129 -101 12 12
-36 141 -68 179 -31 38 -109 97 -128 97 -7 0 -9 -10 -5 -27z"/>
<path d="M1656 3112 c-42 -61 -66 -142 -66 -223 0 -90 11 -87 64 14 35 67 40
86 44 162 3 52 1 85 -5 85 -6 0 -22 -17 -37 -38z"/>
<path d="M4373 3064 c5 -74 12 -98 45 -162 21 -42 44 -78 50 -80 18 -6 15 136
-3 189 -19 52 -73 139 -88 139 -6 0 -8 -29 -4 -86z"/>
<path d="M3101 3054 c-82 -47 -132 -97 -165 -167 -28 -59 -33 -87 -15 -87 23
0 154 77 189 111 21 21 44 57 54 84 17 51 21 95 9 95 -5 0 -37 -17 -72 -36z"/>
<path d="M3417 3075 c-37 -8 -76 -17 -86 -20 -21 -6 -101 -105 -101 -123 0
-19 94 -14 152 8 36 13 71 38 107 74 76 77 63 87 -72 61z"/>
<path d="M2675 3031 c-121 -38 -189 -66 -256 -107 -69 -41 -99 -74 -37 -39 65
36 234 95 274 95 29 0 174 64 174 77 0 11 -77 -2 -155 -26z"/>
<path d="M3670 2965 c0 -8 -24 -26 -52 -41 -73 -36 -148 -87 -148 -100 0 -13
61 -44 157 -80 69 -26 79 -22 85 36 5 52 21 42 43 -27 11 -35 23 -63 27 -63 7
0 25 75 34 148 7 61 1 72 -65 114 -49 31 -81 36 -81 13z"/>
<path d="M2770 2908 c-36 -29 -73 -61 -83 -72 -52 -61 -109 -226 -77 -226 18
0 154 111 188 152 49 62 83 198 49 198 -7 0 -42 -23 -77 -52z"/>
<path d="M1853 2931 c-28 -9 -72 -34 -97 -55 -51 -42 -102 -103 -93 -113 8 -7
112 34 152 60 45 30 125 109 119 119 -7 12 -22 10 -81 -11z"/>
<path d="M4143 2937 c-11 -18 106 -118 174 -149 109 -49 121 -35 40 47 -56 55
-106 86 -169 103 -27 7 -40 7 -45 -1z"/>
<path d="M1419 2815 c-31 -70 -42 -161 -30 -248 12 -85 28 -134 40 -121 13 15
42 145 48 219 6 71 -10 180 -28 191 -5 3 -19 -15 -30 -41z"/>
<path d="M4614 2838 c-14 -23 -17 -188 -4 -251 21 -105 31 -138 39 -132 5 2
17 37 26 76 20 82 16 148 -17 252 -21 67 -30 78 -44 55z"/>
<path d="M3081 2787 c-36 -12 -66 -27 -68 -34 -5 -16 129 -37 186 -29 67 9
143 36 138 49 -5 17 -75 35 -137 36 -32 0 -82 -9 -119 -22z"/>
<path d="M2465 2748 c-27 -29 -59 -77 -72 -106 -25 -53 -51 -187 -39 -199 12
-12 81 54 128 121 48 69 73 146 66 203 -5 45 -31 39 -83 -19z"/>
<path d="M3405 2674 c-33 -20 -109 -58 -170 -84 -99 -42 -110 -49 -108 -71 2
-42 43 -138 61 -143 46 -15 637 -45 648 -33 7 7 -99 227 -122 254 -17 19 -217
113 -240 113 -5 0 -36 -16 -69 -36z"/>
<path d="M2849 2660 c-25 -4 -74 -22 -109 -40 -59 -30 -63 -33 -45 -46 40 -30
195 -10 285 36 62 32 53 40 -60 55 -14 1 -46 -1 -71 -5z"/>
<path d="M1674 2631 c-58 -33 -132 -111 -163 -171 -12 -22 -21 -43 -21 -45 0
-26 120 46 176 106 38 41 94 119 94 131 0 16 -36 7 -86 -21z"/>
<path d="M4320 2648 c0 -43 126 -181 208 -226 40 -22 42 -22 42 -4 0 56 -92
164 -178 210 -66 36 -72 37 -72 20z"/>
<path d="M2236 2558 c-48 -82 -58 -120 -60 -212 -1 -106 10 -118 49 -51 37 62
51 115 59 218 7 102 -7 115 -48 45z"/>
<path d="M1243 2453 c-4 -16 -8 -75 -8 -133 1 -98 3 -110 34 -177 19 -40 42
-79 51 -88 17 -15 18 -11 25 77 8 112 -5 197 -45 285 -31 69 -46 78 -57 36z"/>
<path d="M2536 2459 c-52 -12 -156 -69 -156 -85 0 -21 12 -23 107 -14 65 6
103 15 139 34 65 34 87 52 79 65 -7 13 -114 13 -169 0z"/>
<path d="M2921 2409 c-39 -34 -82 -77 -97 -96 -31 -41 -22 -59 20 -43 15 5 34
10 42 10 17 0 64 -44 64 -60 0 -17 -77 -11 -112 9 -30 18 -36 18 -66 6 l-33
-15 80 -78 c55 -53 81 -86 81 -101 0 -18 -4 -22 -17 -16 -58 24 -56 26 -51
-74 3 -51 10 -97 16 -103 5 -5 45 -25 88 -42 202 -84 256 -110 269 -130 8 -13
17 -85 24 -201 7 -99 14 -190 16 -201 5 -22 232 -182 289 -204 41 -15 218 -13
241 4 16 11 17 22 12 77 -3 36 -10 77 -16 92 -10 26 -13 27 -86 27 -67 0 -75
2 -75 19 0 10 16 33 35 50 32 28 42 31 100 31 49 0 65 3 65 14 0 32 -27 38
-140 32 l-110 -5 20 39 c22 43 30 46 158 53 74 4 97 13 84 32 -4 6 -42 33 -84
60 -70 45 -78 53 -78 81 0 37 6 40 80 42 109 3 220 15 226 23 2 5 -4 28 -15
51 -10 24 -33 77 -49 118 -17 41 -44 105 -61 142 -28 60 -30 73 -25 136 3 38
2 72 -3 75 -5 3 -83 10 -173 16 -436 29 -495 33 -506 38 -6 2 -15 22 -18 44
-8 50 -29 82 -62 97 -43 20 -61 14 -133 -49z m656 -281 c-5 -16 -204 -15 -220
1 -8 8 22 11 107 11 90 0 117 -3 113 -12z m-52 -57 c8 -15 -33 -24 -73 -16
-26 5 -32 9 -21 16 18 12 86 12 94 0z m42 -7 c-3 -3 -12 -4 -19 -1 -8 3 -5 6
6 6 11 1 17 -2 13 -5z"/>
<path d="M4775 2420 c-14 -27 -32 -78 -40 -112 -16 -67 -21 -258 -7 -258 14 0
48 42 70 85 30 61 45 150 38 225 -13 127 -22 136 -61 60z"/>
<path d="M1550 2299 c-59 -47 -104 -113 -125 -183 -18 -59 -19 -86 -4 -86 23
0 141 138 174 204 58 114 43 135 -45 65z"/>
<path d="M4437 2334 c-8 -8 29 -101 58 -146 31 -47 144 -168 157 -168 18 0 1
80 -32 146 -21 42 -48 78 -83 107 -57 49 -91 69 -100 61z"/>
<path d="M2054 2318 c-17 -27 -8 -181 14 -252 13 -38 20 -77 17 -87 -13 -39
14 -25 46 24 18 29 77 96 131 150 100 100 104 119 13 67 -36 -20 -68 -52 -104
-100 -29 -38 -57 -70 -62 -70 -5 0 -7 39 -3 98 4 71 2 107 -8 136 -16 43 -31
55 -44 34z"/>
<path d="M2385 2118 c-68 -24 -106 -92 -107 -191 0 -131 94 -243 221 -263 27
-4 46 -2 56 6 22 18 9 30 -36 30 -118 0 -214 101 -213 225 1 111 56 170 151
161 68 -6 107 -30 135 -83 28 -52 43 -55 35 -8 -16 100 -135 161 -242 123z"/>
<path d="M1155 2039 c-9 -25 23 -168 54 -234 42 -90 151 -202 151 -155 0 31
-44 190 -65 233 -33 69 -131 178 -140 156z"/>
<path d="M4852 1992 c-61 -74 -98 -147 -116 -232 -8 -36 -17 -77 -21 -92 -11
-41 12 -36 63 14 73 70 111 153 132 284 15 93 3 99 -58 26z"/>
<path d="M1528 1973 c-51 -57 -76 -103 -93 -171 -17 -65 -17 -158 0 -156 6 0
33 37 61 82 49 77 65 123 89 250 9 44 -13 42 -57 -5z"/>
<path d="M4484 1958 c4 -29 15 -76 25 -105 22 -65 111 -213 128 -213 20 0 16
97 -5 167 -22 69 -45 109 -96 163 -50 54 -60 52 -52 -12z"/>
<path d="M2396 1943 c-22 -23 10 -151 45 -179 19 -15 81 -35 88 -29 2 3 -12
20 -33 37 -42 34 -75 97 -76 140 0 27 -12 43 -24 31z"/>
<path d="M2177 1758 c3 -12 22 -59 42 -103 32 -72 36 -88 34 -155 -3 -88 -17
-183 -44 -299 -21 -89 -18 -110 11 -74 22 28 64 286 65 398 0 79 -1 81 -51
163 -60 96 -65 102 -57 70z"/>
<path d="M2920 1716 c0 -3 27 -21 60 -41 69 -42 80 -58 80 -114 0 -32 -4 -41
-21 -46 -20 -7 -19 -9 16 -45 44 -45 39 -65 -14 -57 -20 3 -45 8 -56 12 -14 5
-11 -1 10 -19 55 -47 90 -73 113 -85 27 -14 27 -16 8 162 -10 92 -18 133 -31
147 -9 10 -47 34 -85 54 -66 35 -80 41 -80 32z"/>
<path d="M1587 1659 c-9 -13 -30 -55 -48 -92 -29 -62 -31 -75 -26 -135 7 -83
25 -144 40 -139 7 2 23 34 36 73 26 77 41 268 23 299 -9 17 -11 16 -25 -6z"/>
<path d="M4446 1623 c-3 -32 -2 -86 3 -120 11 -75 60 -237 69 -229 15 15 31
106 32 177 0 69 -4 83 -37 150 -21 40 -43 75 -49 77 -7 2 -14 -20 -18 -55z"/>
<path d="M1175 1599 c-11 -17 89 -212 129 -252 31 -31 151 -107 169 -107 14 0
6 27 -25 88 -44 85 -106 163 -176 217 -74 60 -89 68 -97 54z"/>
<path d="M4808 1551 c-41 -32 -88 -75 -105 -95 -40 -49 -127 -205 -119 -213
12 -13 118 48 171 98 74 70 175 269 136 269 -4 0 -42 -27 -83 -59z"/>
<path d="M2730 1376 c0 -27 27 -53 100 -96 79 -47 231 -122 236 -117 3 2 -35
31 -83 63 -49 32 -125 84 -170 116 -77 53 -83 56 -83 34z"/>
<path d="M1706 1360 c-21 -53 -36 -124 -36 -178 0 -51 7 -80 37 -148 51 -117
57 -113 69 38 5 71 3 108 -10 157 -22 85 -52 151 -60 131z"/>
<path d="M2543 1303 c19 -206 52 -458 68 -509 9 -28 116 -123 202 -178 34 -23
34 -16 -2 75 -82 205 -166 424 -196 509 -42 119 -64 170 -72 170 -3 0 -3 -30
0 -67z"/>
<path d="M4331 1317 c-11 -28 -26 -77 -32 -107 -14 -68 -5 -228 15 -248 11
-12 18 -2 46 64 41 99 47 161 26 258 -10 41 -21 78 -26 81 -4 3 -17 -19 -29
-48z"/>
<path d="M2386 1228 c-3 -13 -9 -75 -12 -139 -7 -111 -6 -117 16 -139 38 -38
43 -15 25 146 -9 82 -18 150 -19 152 -2 1 -6 -8 -10 -20z"/>
<path d="M1300 1167 c0 -18 109 -146 151 -178 71 -54 222 -110 241 -91 13 13
-113 144 -178 187 -45 30 -189 95 -210 95 -2 0 -4 -6 -4 -13z"/>
<path d="M4669 1146 c-96 -42 -152 -80 -234 -162 -76 -76 -83 -98 -27 -88 117
21 233 96 314 202 72 94 67 99 -53 48z"/>
<path d="M1883 1064 c-3 -9 -3 -49 0 -90 7 -94 38 -162 106 -234 l52 -55 -5
65 c-7 89 -36 178 -86 260 -43 72 -56 82 -67 54z"/>
<path d="M4121 1012 c-51 -85 -78 -159 -92 -257 -12 -77 -6 -105 15 -71 6 11
27 38 47 60 56 63 79 118 91 217 16 141 1 153 -61 51z"/>
<path d="M2790 1024 c0 -4 22 -55 48 -113 27 -58 77 -177 112 -264 l63 -158
48 -25 c50 -25 79 -31 79 -15 0 16 -183 395 -211 436 -54 81 -139 165 -139
139z"/>
<path d="M3839 780 c-69 -69 -105 -114 -131 -165 -68 -132 -62 -141 47 -67 82
56 120 108 159 216 43 122 33 124 -75 16z"/>
<path d="M2120 855 c0 -3 14 -41 30 -84 36 -93 79 -160 123 -194 48 -36 137
-79 137 -66 0 6 -19 48 -42 93 -32 60 -65 103 -130 169 -48 48 -94 87 -102 87
-9 0 -16 -2 -16 -5z"/>
<path d="M3307 798 c-20 -28 -40 -62 -43 -75 -7 -26 -17 -29 -33 -9 -18 22
-112 59 -123 48 -5 -5 15 -54 51 -123 45 -88 65 -116 85 -124 49 -17 59 -1 88
156 38 207 37 212 -25 127z"/>
<path d="M1550 781 c0 -18 115 -104 180 -134 50 -24 81 -32 147 -35 45 -3 90
-1 100 3 50 19 -170 146 -287 164 -81 13 -140 14 -140 2z"/>
<path d="M4383 779 c-28 -5 -76 -18 -107 -29 -64 -24 -206 -114 -206 -131 0
-20 186 -6 250 19 56 22 191 117 198 140 4 14 -53 15 -135 1z"/>
<path d="M1985 495 c-5 -2 -31 -6 -57 -10 -27 -3 -48 -11 -48 -16 0 -6 24 -21
54 -34 126 -56 248 -69 374 -40 70 16 101 30 91 40 -4 3 -59 19 -124 35 -85
22 -139 30 -199 29 -44 0 -85 -2 -91 -4z"/>
<path d="M3815 476 c-126 -34 -154 -45 -135 -56 36 -20 144 -40 215 -40 85 0
168 18 251 55 93 41 70 52 -121 60 -105 5 -131 2 -210 -19z"/>
<path d="M2502 394 c4 -3 39 -18 80 -33 40 -15 73 -32 73 -39 0 -7 -38 -31
-85 -55 -47 -23 -85 -46 -85 -52 0 -5 20 -11 44 -13 36 -3 60 5 140 46 53 27
107 51 121 55 41 11 13 23 -138 61 -150 38 -159 40 -150 30z"/>
<path d="M3470 373 c-30 -9 -88 -23 -128 -32 -40 -9 -73 -20 -72 -26 1 -5 54
-35 119 -65 98 -46 125 -55 160 -52 25 3 41 9 39 16 -2 6 -41 30 -87 52 -45
23 -83 45 -83 50 0 5 28 23 63 41 71 35 69 38 -11 16z"/>
</g>
</svg>
